<svg xmlns="http://www.w3.org/2000/svg" viewBox="0 0 1300 1300" fill="none">
  <g stroke="#FFFFFF" stroke-linecap="round" stroke-linejoin="round" stroke-width="12">
    <path d="M555 70C598 89 627 120 647 161C661 190 662 222 653 253C645 282 650 312 656 341C664 380 672 420 674 461C675 503 674 547 690 586C701 613 719 637 736 663"/>
    <path d="M738 662C779 659 818 676 847 703C873 728 886 764 897 799C911 842 934 883 965 920C991 951 1024 974 1060 990"/>
    <path d="M668 447C632 481 598 518 573 561C553 596 540 633 529 670C521 697 507 722 487 742C470 759 448 772 425 777C401 782 377 773 362 754C346 733 346 705 351 680C357 650 369 621 384 594C402 561 414 525 421 488C426 456 433 422 447 393C460 366 481 344 507 326C530 310 558 304 585 304C611 305 632 322 643 345"/>
    <path d="M487 741C514 784 549 820 590 850C614 869 643 886 673 894C701 901 732 902 758 888C785 874 798 843 790 813C782 780 760 754 736 733C709 710 684 685 664 653C645 622 626 591 602 564C581 540 554 522 524 516C495 510 464 520 447 546"/>
    <path d="M730 806C674 795 620 797 566 814C533 825 501 841 475 865C457 883 445 905 448 930C451 957 475 976 501 976C526 976 548 965 568 952C603 930 636 905 671 884C703 865 738 850 774 843C808 836 842 838 876 844"/>
    <path d="M860 842C910 853 959 873 1002 901C1036 923 1067 950 1098 977C1138 1013 1183 1042 1232 1065"/>
  </g>
</svg>
