<svg xmlns="http://www.w3.org/2000/svg" viewBox="0 0 1300 1300" fill="none">
  <g stroke="#FFFFFF" stroke-linecap="round" stroke-linejoin="round" stroke-width="12">
    <path d="M309 534C309 346 461 194 649 194C837 194 989 346 989 534V687"/>
    <path d="M310 536C310 452 329 378 372 317C430 233 530 181 637 181C740 181 833 228 893 307C941 369 967 447 967 536"/>
    <path d="M317 694C294 717 274 743 261 773C245 810 239 853 246 893C252 929 276 959 313 963C352 966 386 941 412 914C448 875 459 830 466 781C470 752 472 722 467 693C461 663 448 632 426 610C404 588 373 576 344 581C329 584 316 591 305 601"/>
    <path d="M430 600C456 631 469 670 471 710C473 750 468 789 464 829C462 848 456 866 445 882"/>
    <path d="M990 694C1013 717 1033 743 1046 773C1062 810 1068 853 1061 893C1055 929 1031 959 994 963C955 966 921 941 895 914C859 875 848 830 841 781C837 752 835 722 840 693C846 663 859 632 881 610C903 588 934 576 963 581C978 584 991 591 1002 601"/>
    <path d="M876 600C850 631 837 670 835 710C833 750 838 789 842 829C844 848 850 866 861 882"/>
    <path d="M448 610C470 589 502 580 531 588C558 596 579 619 593 644C610 675 626 707 648 735C668 760 693 781 723 794C752 807 784 812 815 809"/>
    <path d="M451 612C491 595 529 575 560 544C587 517 607 483 618 447"/>
    <path d="M847 610C825 589 793 580 764 588C737 596 716 619 702 644C685 675 669 707 647 735C627 760 602 781 572 794C543 807 511 812 480 809"/>
    <path d="M844 612C804 595 766 575 735 544C708 517 688 483 677 447"/>
    <path d="M630 873C662 906 698 935 738 957C803 991 873 1020 934 1062C988 1099 1037 1144 1066 1208"/>
  </g>
</svg>
