<svg xmlns="http://www.w3.org/2000/svg" viewBox="0 0 1300 650" fill="none">
  <g stroke="#FFFFFF" stroke-linecap="round" stroke-linejoin="round" stroke-width="10">
    <path d="M34 248C76 228 129 202 179 198C235 193 289 204 342 214C425 230 510 248 594 269C664 286 733 306 805 322C859 334 915 339 969 331C1001 326 1036 320 1058 298C1084 271 1064 236 1036 225C1004 211 965 216 940 236C918 255 933 282 953 297C981 318 1018 324 1053 325C1123 327 1194 315 1254 281C1267 273 1279 266 1290 258"/>
    <path d="M253 250C318 240 383 257 442 280C505 305 564 342 621 385C641 400 663 418 671 445C676 464 672 486 653 496C636 504 614 494 599 483C558 455 527 411 491 379C457 349 419 325 382 299C335 268 292 249 244 249"/>
    <path d="M374 257C436 287 496 311 563 322C588 326 618 329 640 314C661 299 654 268 633 258C614 249 590 250 568 252C507 258 448 280 386 280"/>
    <path d="M648 365C690 352 736 351 774 372C799 386 824 404 850 415C877 426 911 423 938 414"/>
    <path d="M703 389C739 385 773 392 804 411C826 424 844 444 867 456C892 469 921 470 948 467C983 463 1015 455 1051 458C1122 464 1190 499 1244 545"/>
  </g>
</svg>
